<svg xmlns="http://www.w3.org/2000/svg" xml:space="preserve" width="1000pt" height="1000pt" preserveAspectRatio="xMidYMid" viewBox="0 0 1000 1000"><path d="M-55.251-48.167h1099.347V1051.18H-55.251z" style="fill:#0d1949;fill-opacity:1;stroke-width:8.23334;stroke-linejoin:bevel;stroke-dasharray:16.4668,32.9336;paint-order:stroke markers fill"/><path d="M1405.607-106.878v51.31h4.789V-60.7c.205.41.548.753.821 1.027 2.874 3.215 6.362 4.788 10.535 4.788 4.105 0 7.594-1.573 10.467-4.788 2.736-3.079 4.173-6.704 4.173-10.946 0-4.173-1.437-7.8-4.173-10.946-2.873-3.147-6.362-4.789-10.467-4.789-4.173 0-7.661 1.642-10.535 4.789-.273.342-.616.683-.822 1.094v-26.407zm-69.164 2.052-14.024 36.532-7.183-33.794h-4.926l10.878 50.282 15.255-40.5 15.256 40.5 10.81-50.282h-4.858l-7.251 33.794zm126.73 2.89v46.225h12.1c3.263 0 6.39-.544 9.314-1.7a24.3 24.3 0 0 0 7.545-4.826c2.108-2.04 3.807-4.418 5.03-7.273a23.3 23.3 0 0 0 1.903-9.313c0-3.331-.679-6.39-1.902-9.245-1.224-2.855-2.923-5.302-5.03-7.342-2.176-2.039-4.691-3.602-7.546-4.757a25.2 25.2 0 0 0-9.314-1.769zm-287.801.27v4.377h11.107v41.404h4.713V-97.29h11.11v-4.377h-15.823zm292.56 4.49h7.478c5.302 0 9.788 1.767 13.459 5.166 3.67 3.535 5.575 7.952 5.575 13.187 0 5.302-1.904 9.72-5.575 13.188s-8.157 5.166-13.46 5.166h-7.477zm-85.927 10.686c-4.378 0-8.072 1.572-11.15 4.65-3.078 3.08-4.585 6.774-4.585 11.084 0 4.378 1.507 8.073 4.585 11.083 1.437 1.436 3.078 2.53 4.994 3.351s4.172 1.232 6.84 1.232 5.268-.82 7.868-2.462 4.514-3.97 5.814-6.843h-5.473a11.7 11.7 0 0 1-3.966 3.353c-1.574.821-3.216 1.164-4.927 1.164-2.6 0-4.926-.821-6.978-2.532-2.052-1.642-3.351-3.762-3.762-6.361h26.476v-2.532c0-4.104-1.643-7.663-4.79-10.741-3.079-2.942-6.772-4.446-10.946-4.446m-138.342.013c-4.388 0-8.09 1.578-11.176 4.663-3.085 3.085-4.592 6.786-4.592 11.105 0 4.387 1.507 8.09 4.592 11.106 3.085 3.085 6.857 4.594 11.176 4.594 4.25 0 8.02-1.51 11.105-4.594 3.085-3.016 4.662-6.719 4.662-11.106 0-4.32-1.577-8.02-4.662-11.105s-6.786-4.663-11.105-4.663m277.155.041c-4.35 0-8.02 1.563-11.08 4.622-3.059 3.059-4.554 6.73-4.554 11.012 0 4.35 1.495 8.022 4.554 11.013 1.428 1.427 3.06 2.515 4.963 3.331s4.146 1.223 6.797 1.223 5.235-.815 7.818-2.446 4.487-3.943 5.779-6.798h-5.44a11.6 11.6 0 0 1-3.941 3.33c-1.564.816-3.196 1.156-4.896 1.156-2.583 0-4.893-.815-6.933-2.515-2.04-1.631-3.332-3.739-3.74-6.322h26.31v-2.515c0-4.079-1.633-7.614-4.76-10.673-3.06-2.923-6.73-4.418-10.877-4.418m-299.711.165c-3.428 0-5.895 1.92-7.472 5.621l-.205 1.235v-6.239h-4.8v30.164h4.8v-15.082c0-2.468.548-4.662 1.714-6.65a8.1 8.1 0 0 1 2.192-2.605 5.23 5.23 0 0 1 3.223-1.097c1.234 0 2.399.55 3.564 1.509v-6.239a7.7 7.7 0 0 0-3.016-.617m42.094.617 12.614 25.228-10.147 22.075h5.827l20.841-47.303h-5.348l-8.638 20.224-9.665-20.224zm276.652.034 13.798 32.766 13.733-32.766h-5.166l-8.567 22.229-8.632-22.23zm-157.848 3.918q3.798 0 6.774 2.463c2.052 1.71 3.284 3.83 3.9 6.362h-21.346a11.1 11.1 0 0 1 1.437-3.488q3.284-5.337 9.235-5.337m-138.342.024c3.016 0 5.552 1.097 7.746 3.222 2.125 2.194 3.222 4.73 3.222 7.747s-1.097 5.553-3.222 7.678c-2.194 2.194-4.73 3.223-7.746 3.223s-5.623-1.029-7.748-3.223c-2.194-2.125-3.221-4.662-3.221-7.678s1.027-5.553 3.221-7.747c2.125-2.125 4.731-3.222 7.748-3.222m277.155 0q3.774 0 6.73 2.448c2.04 1.699 3.264 3.807 3.876 6.322h-21.21q.408-1.836 1.427-3.467 3.263-5.303 9.177-5.303m-99.818.113c2.941 0 5.474 1.095 7.526 3.284s3.078 4.79 3.078 7.662c0 2.942-1.026 5.54-3.078 7.661-2.052 2.19-4.585 3.285-7.526 3.285q-4.515 0-7.594-3.285c-2.053-2.12-3.01-4.719-3.01-7.66 0-2.874.957-5.474 3.01-7.663q3.078-3.284 7.594-3.284" style="font-style:normal;font-variant:normal;font-weight:400;font-stretch:normal;font-size:68.4115px;line-height:0;font-family:&quot;Glacial Indifference&quot;;-inkscape-font-specification:&quot;Glacial Indifference&quot;;text-align:center;letter-spacing:0;word-spacing:0;text-anchor:middle;fill:#f9f9f9;fill-opacity:1;stroke-width:9.22859;stroke-linejoin:bevel;stroke-dasharray:18.4573,36.9147;paint-order:stroke markers fill" transform="translate(-2310.895 954.074)scale(2.04932)"/><path d="M1226.838-400.024h287.879a29.33 29.33 0 0 1 29.395 29.395v166.217a29.33 29.33 0 0 1-29.395 29.395h-287.879a29.33 29.33 0 0 1-29.394-29.395V-370.63a29.33 29.33 0 0 1 29.394-29.395" style="fill:none;stroke:#fff;stroke-width:9.54023;stroke-linecap:round;stroke-linejoin:round;paint-order:stroke fill markers" transform="translate(-2310.895 954.074)scale(2.04932)"/><path d="M1279.736-144.63h182.084z" style="fill:none;fill-opacity:1;stroke:#fff;stroke-width:10.154;stroke-linecap:round;stroke-linejoin:miter;stroke-dasharray:none;stroke-dashoffset:0;stroke-opacity:1;paint-order:markers fill stroke" transform="translate(-2310.895 954.074)scale(2.04932)"/><path d="m1255.942-281.096 57.04-60.4zm65.956 51.336-66.355-59.474zm163.422-56.363-17.073-15.04-45.266-39.873zm-57.21 53.163 56.862-61.303z" style="fill:none;fill-opacity:1;stroke:#fff;stroke-width:12.054;stroke-linecap:round;stroke-linejoin:miter;stroke-dasharray:none;stroke-dashoffset:0;stroke-opacity:1;paint-order:markers fill stroke" transform="translate(-2310.895 954.074)scale(2.04932)"/><path d="m1368.5-274.994 60.355-69.12.25-18.283-64.362 74.38z" style="fill:#56a7a8;fill-opacity:1;stroke:none;stroke-width:0;stroke-linecap:butt;stroke-linejoin:miter;stroke-dasharray:none;stroke-dashoffset:0;stroke-opacity:1;paint-order:normal" transform="translate(-2310.895 954.074)scale(2.04932)"/><path d="m1312.79-210.868 57.35-66.115-.752-16.278-56.348 64.612z" style="fill:#ebea1a;fill-opacity:1;stroke:none;stroke-width:0;stroke-linecap:butt;stroke-linejoin:miter;stroke-dasharray:none;stroke-dashoffset:0;stroke-opacity:1;paint-order:normal" transform="translate(-2310.895 954.074)scale(2.04932)"/></svg>